<?xml version="1.0" encoding="utf-8"?>
<!DOCTYPE svg PUBLIC "-//W3C//DTD SVG 1.1//EN" "http://www.w3.org/Graphics/SVG/1.1/DTD/svg11.dtd">
<svg version="1.1" id="Layer_1" xmlns="http://www.w3.org/2000/svg" xmlns:xlink="http://www.w3.org/1999/xlink" x="0px" y="0px"
	 width="160px" height="155px" viewBox="34.805 100.044 794.96 955.368"
	 enable-background="new 34.805 100.044 794.96 955.368" xml:space="preserve">
<g id="Layer_2">
	<path fill="#0E7071" d="M618.445,251.189l-49.704,49.561v164.375l38.869-38.801c0,0,10.835-11.76,10.835-27.018
		C618.445,362.229,618.445,251.189,618.445,251.189z"/>
	<path fill="#0E7071" d="M247.991,251.189l49.704,49.561v164.375l-38.869-38.801c0,0-10.835-11.76-10.835-27.018
		C247.991,362.229,247.991,251.189,247.991,251.189z"/>
	<path fill="#0E7071" d="M660.151,723.675c-0.485-15.342-22.318-35.675-49.188-11.492L553.95,769.08
		c-22.284,22.503-15.7,41.92,0.258,58.96l54.09,53.975c18.202,15.736,20.535,34.902,13.515,47.611l-96.154-96.085
		c-12.158-12.207-24.575-41.874,4.757-74.939l80.978-80.883C648.667,640.333,677.75,571.75,611.909,504
		c-0.343-0.347-178.659-178.594-178.659-178.594l-24.416,24.303c-27.834,29.541-3.996,50.658,5.365,61.257L570.5,567.125
		c56.75,62.208,20,114.542,1.706,133.026l-91.068,91.018C447.5,827.5,456.5,870.5,479,891.375l94.127,94.034l48.93-48.99
		c11.695-11.087,38.095-32.221,38.095-60.887L660.151,723.675z M608.445,799.25c-6.766,0-12.25-5.484-12.25-12.25
		s5.484-12.25,12.25-12.25s12.25,5.484,12.25,12.25S615.211,799.25,608.445,799.25z"/>
	<path fill="#0E7071" d="M389,419.875l86.61,86.465c38.306,40.827,13.449,71.886,2.283,83.053l-81.225,80.934l-84.835-84.91
		c-28.333-34.167-15.75-92.75-12.527-116.973l133.027,132.973c6-2.75,12.875-20.958,0.667-33.167l-43.044-43.02
		C349.863,485.137,398.563,449.813,389,419.875z"/>
	<line fill="#0E7071" x1="472.601" y1="947.506" x2="433.818" y2="985.409"/>
	<path fill="#0E7071" d="M553.348,684.078c3.402-3.578,46.277-52.328-0.714-100.838l-17.259-17.253l-126.02,125.869
		c-2.82,2.757-10.481,11.269-11.397,13.537L285.651,593.49c-4.836-4.194-53.151-41.907-1.634-102.363l84.789-84.83
		c1.348-1.38,9.318-10.798,7.395-23.893L248.846,509.606c-41.096,45.019-48.763,101.477-9.886,141.765L396.167,808.25
		c-3.25,2.25-9.936,15.862-9.104,25.219l-118.906-120c-13.073-13.052-32.035-15.942-45.538-8.247
		c-10.29,5.864-16.431,16.899-16.432,35.125l0.001,122.31c0,36.714,11.869,46.162,25.546,59.839l62.345,62.655l31.388-30.425
		c2.846-3.163,18.784-23.35-2.58-46.153L211.353,795.895c0.774-1.203,11.647-17.958,27.239-5.519l195.226,195.032l38.783-37.903
		c0.766-0.924,12.399-13.193,0.086-28.448l-20.903-20.928c-7.617-7.963-48.283-52.963,0.51-112.682L553.348,684.078z
		 M398.063,806.167v-20.688c0-27.104,5.271-53.896,26.313-74.938L497.958,637c28.792,24,11.708,58.125,1.042,68.167L398.063,806.167
		z"/>
</g>
<g id="Layer_3">
	<path fill="#0E7071" d="M470.81,280.464c1.953,1.953,1.953,5.118,0,7.071l-33.941,33.941c-1.953,1.953-5.118,1.953-7.071,0
		l-33.941-33.941c-1.953-1.953-1.953-5.118,0-7.071l33.941-33.941c1.953-1.953,5.118-1.953,7.071,0L470.81,280.464z"/>
	<path fill="#0E7071" d="M512.007,141.474c1.597,2.068,1.216,5.038-0.852,6.635l-35.94,27.761c-2.068,1.597-5.038,1.216-6.635-0.852
		l-27.761-35.94c-1.597-2.068-1.216-5.038,0.852-6.635l35.94-27.761c2.068-1.597,5.038-1.216,6.635,0.852L512.007,141.474z"/>
	<path fill="#0E7071" d="M590.381,168.857c1.018,2.241,0.027,4.883-2.213,5.901l-38.948,17.7c-2.241,1.018-4.883,0.027-5.901-2.213
		l-17.7-38.948c-1.018-2.241-0.027-4.883,2.213-5.901l38.948-17.7c2.241-1.018,4.883-0.027,5.901,2.213L590.381,168.857z"/>
	<path fill="#0E7071" d="M661.659,214.848c0.463,2.417-1.121,4.752-3.538,5.215l-42.017,8.048c-2.417,0.463-4.752-1.121-5.215-3.538
		l-8.048-42.017c-0.463-2.417,1.121-4.752,3.538-5.215l42.017-8.048c2.417-0.463,4.752,1.121,5.215,3.538L661.659,214.848z"/>
	<path fill="#0E7071" d="M719.681,275.322c-0.12,2.402-2.164,4.252-4.566,4.132l-41.749-2.084c-2.402-0.12-4.252-2.164-4.132-4.566
		l2.084-41.749c0.12-2.402,2.164-4.252,4.566-4.132l41.749,2.084c2.402,0.12,4.252,2.164,4.132,4.566L719.681,275.322z"/>
	<path fill="#0E7071" d="M762.724,348.151c-0.666,2.276-3.051,3.581-5.327,2.914l-39.557-11.58
		c-2.276-0.666-3.581-3.051-2.914-5.327l11.58-39.557c0.666-2.276,3.051-3.581,5.327-2.914l39.557,11.58
		c2.276,0.666,3.581,3.051,2.914,5.327L762.724,348.151z"/>
	<path fill="#0E7071" d="M786.374,426.057c-1.043,1.823-3.367,2.455-5.19,1.412l-31.689-18.133c-1.823-1.043-2.455-3.367-1.412-5.19
		l18.133-31.689c1.043-1.823,3.367-2.455,5.19-1.412l31.689,18.133c1.823,1.043,2.455,3.367,1.412,5.19L786.374,426.057z"/>
	<path fill="#0E7071" d="M792.181,507.911c-1.416,1.529-3.803,1.62-5.331,0.205l-26.574-24.608c-1.529-1.416-1.62-3.803-0.205-5.332
		l24.608-26.574c1.416-1.529,3.803-1.62,5.331-0.205l26.574,24.608c1.529,1.416,1.62,3.803,0.205,5.332L792.181,507.911z"/>
	<path fill="#0E7071" d="M779.012,588.506c-1.535,1.032-3.617,0.625-4.649-0.911l-17.946-26.687
		c-1.032-1.535-0.625-3.617,0.911-4.649l26.687-17.946c1.535-1.032,3.617-0.625,4.649,0.911l17.946,26.687
		c1.032,1.535,0.625,3.617-0.911,4.649L779.012,588.506z"/>
	<path fill="#0E7071" d="M748.694,663.448c-1.601,0.596-3.382-0.218-3.978-1.819l-10.363-27.827
		c-0.596-1.601,0.218-3.382,1.819-3.978L764,619.46c1.601-0.596,3.382,0.218,3.978,1.819l10.363,27.827
		c0.596,1.601-0.218,3.382-1.819,3.978L748.694,663.448z"/>
	<path fill="#0E7071" d="M552.29,999.621c1.953,1.953,1.953,5.118,0,7.071l-45.255,45.255c-1.953,1.953-5.118,1.953-7.071,0
		l-45.255-45.255c-1.953-1.953-1.953-5.118,0-7.071l45.255-45.255c1.953-1.953,5.118-1.953,7.071,0L552.29,999.621z"/>
	<path fill="#0E7071" d="M412.79,999.621c1.953,1.953,1.953,5.118,0,7.071l-45.255,45.255c-1.953,1.953-5.118,1.953-7.071,0
		l-45.255-45.255c-1.953-1.953-1.953-5.118,0-7.071l45.255-45.255c1.953-1.953,5.118-1.953,7.071,0L412.79,999.621z"/>
	<path fill="#0E7071" d="M731.25,725.25c0,1.657-1.343,3-3,3h-28c-1.657,0-3-1.343-3-3v-28c0-1.657,1.343-3,3-3h28
		c1.657,0,3,1.343,3,3V725.25z"/>
	<path fill="#0E7071" d="M701.778,650.794c0.372,1.399-0.461,2.835-1.86,3.206l-23.645,6.282c-1.399,0.372-2.835-0.461-3.206-1.86
		l-6.282-23.645c-0.372-1.399,0.461-2.835,1.86-3.206l23.645-6.282c1.399-0.372,2.835,0.461,3.206,1.86L701.778,650.794z"/>
	<path fill="#0E7071" d="M732.7,584.948c0.737,1.406,0.196,3.143-1.21,3.88l-23.753,12.462c-1.406,0.737-3.143,0.196-3.88-1.21
		l-12.462-23.753c-0.737-1.406-0.196-3.143,1.21-3.88l23.753-12.462c1.406-0.737,3.143-0.196,3.88,1.21L732.7,584.948z"/>
	<path fill="#0E7071" d="M748.187,512.833c1.173,1.34,1.038,3.377-0.302,4.55l-22.644,19.824c-1.34,1.173-3.377,1.038-4.55-0.302
		l-19.824-22.644c-1.173-1.34-1.038-3.377,0.302-4.55l22.644-19.824c1.34-1.173,3.377-1.038,4.55,0.302L748.187,512.833z"/>
	<path fill="#0E7071" d="M745.966,438.624c1.571,1.114,1.941,3.291,0.826,4.861l-18.829,26.543
		c-1.114,1.571-3.291,1.941-4.861,0.826l-26.543-18.829c-1.571-1.114-1.941-3.291-0.826-4.861l18.829-26.543
		c1.114-1.571,3.291-1.941,4.861-0.826L745.966,438.624z"/>
	<path fill="#0E7071" d="M727.501,366.345c2.013,0.824,2.976,3.124,2.152,5.136l-13.925,34.012
		c-0.824,2.013-3.124,2.976-5.136,2.152L676.58,393.72c-2.013-0.824-2.976-3.124-2.152-5.136l13.925-34.012
		c0.824-2.013,3.124-2.976,5.136-2.152L727.501,366.345z"/>
	<path fill="#0E7071" d="M683.642,295.056c2.191,0,3.967,1.777,3.966,3.968l-0.008,37.027c0,2.191-1.777,3.967-3.968,3.966
		l-37.027-0.008c-2.191,0-3.967-1.777-3.966-3.968l0.008-37.027c0-2.191,1.777-3.967,3.968-3.966L683.642,295.056z"/>
	<path fill="#0E7071" d="M430.534,172.92c1.55-1.549,4.061-1.548,5.61,0.001l26.176,26.187c1.549,1.55,1.548,4.061-0.001,5.61
		l-26.187,26.176c-1.55,1.549-4.061,1.548-5.61-0.001l-26.176-26.187c-1.549-1.55-1.548-4.061,0.001-5.61L430.534,172.92z"/>
	<path fill="#0E7071" d="M574.962,206.805c1.953-0.763,4.154,0.201,4.918,2.153l12.901,32.998c0.763,1.953-0.201,4.154-2.153,4.918
		l-32.998,12.901c-1.953,0.763-4.154-0.201-4.918-2.153l-12.901-32.998c-0.763-1.953,0.201-4.154,2.153-4.918L574.962,206.805z"/>
	<path fill="#0E7071" d="M504.603,182.601c1.772-1.089,4.091-0.536,5.18,1.236l18.409,29.941c1.089,1.772,0.536,4.091-1.236,5.18
		l-29.941,18.409c-1.772,1.089-4.091,0.536-5.18-1.236l-18.409-29.941c-1.089-1.772-0.536-4.091,1.236-5.18L504.603,182.601z"/>
	<path fill="#0E7071" d="M354.52,141.474c-1.597,2.068-1.216,5.038,0.852,6.635l35.94,27.761c2.068,1.597,5.038,1.216,6.635-0.852
		l27.761-35.94c1.597-2.068,1.216-5.038-0.852-6.635l-35.94-27.761c-2.068-1.597-5.038-1.216-6.635,0.852L354.52,141.474z"/>
	<path fill="#0E7071" d="M276.146,168.857c-1.018,2.241-0.027,4.883,2.213,5.901l38.948,17.7c2.241,1.018,4.883,0.027,5.901-2.213
		l17.7-38.948c1.018-2.241,0.027-4.883-2.213-5.901l-38.948-17.7c-2.241-1.018-4.883-0.027-5.901,2.213L276.146,168.857z"/>
	<path fill="#0E7071" d="M204.867,214.848c-0.463,2.417,1.121,4.752,3.538,5.215l42.017,8.048c2.417,0.463,4.752-1.121,5.215-3.538
		l8.048-42.017c0.463-2.417-1.121-4.752-3.538-5.215l-42.017-8.048c-2.417-0.463-4.752,1.121-5.215,3.538L204.867,214.848z"/>
	<path fill="#0E7071" d="M146.846,275.322c0.12,2.402,2.164,4.252,4.566,4.132l41.749-2.084c2.402-0.12,4.252-2.164,4.132-4.566
		l-2.084-41.749c-0.12-2.402-2.164-4.252-4.566-4.132l-41.749,2.084c-2.402,0.12-4.252,2.164-4.132,4.566L146.846,275.322z"/>
	<path fill="#0E7071" d="M103.803,348.151c0.666,2.276,3.051,3.581,5.327,2.914l39.557-11.58c2.276-0.666,3.581-3.051,2.914-5.327
		l-11.58-39.557c-0.666-2.276-3.051-3.581-5.327-2.914l-39.557,11.58c-2.276,0.666-3.581,3.051-2.914,5.327L103.803,348.151z"/>
	<path fill="#0E7071" d="M80.153,426.057c1.043,1.823,3.367,2.455,5.19,1.412l31.689-18.133c1.823-1.043,2.455-3.367,1.412-5.19
		l-18.133-31.689c-1.043-1.823-3.367-2.455-5.19-1.412l-31.689,18.133c-1.823,1.043-2.455,3.367-1.412,5.19L80.153,426.057z"/>
	<path fill="#0E7071" d="M74.346,507.911c1.416,1.529,3.803,1.62,5.332,0.205l26.574-24.608c1.529-1.416,1.62-3.803,0.205-5.332
		l-24.608-26.574c-1.416-1.529-3.803-1.62-5.332-0.205l-26.574,24.608c-1.529,1.416-1.62,3.803-0.205,5.332L74.346,507.911z"/>
	<path fill="#0E7071" d="M87.515,588.506c1.535,1.032,3.617,0.625,4.649-0.911l17.946-26.687c1.032-1.535,0.625-3.617-0.911-4.649
		l-26.687-17.946c-1.535-1.032-3.617-0.625-4.649,0.911l-17.946,26.687c-1.032,1.535-0.625,3.617,0.911,4.649L87.515,588.506z"/>
	<path fill="#0E7071" d="M117.833,663.448c1.601,0.596,3.382-0.218,3.978-1.819l10.363-27.827c0.596-1.601-0.218-3.382-1.819-3.978
		l-27.827-10.363c-1.601-0.596-3.382,0.218-3.978,1.819l-10.363,27.827c-0.596,1.601,0.218,3.382,1.819,3.978L117.833,663.448z"/>
	<path fill="#0E7071" d="M135.277,725.25c0,1.657,1.343,3,3,3h28c1.657,0,3-1.343,3-3v-28c0-1.657-1.343-3-3-3h-28
		c-1.657,0-3,1.343-3,3V725.25z"/>
	<path fill="#0E7071" d="M164.749,650.794c-0.372,1.399,0.461,2.835,1.86,3.206l23.645,6.282c1.399,0.372,2.835-0.461,3.206-1.86
		l6.282-23.645c0.372-1.399-0.461-2.835-1.86-3.206l-23.645-6.282c-1.399-0.372-2.835,0.461-3.206,1.86L164.749,650.794z"/>
	<path fill="#0E7071" d="M133.827,584.948c-0.737,1.406-0.196,3.143,1.21,3.88l23.753,12.462c1.406,0.737,3.143,0.196,3.88-1.21
		l12.462-23.753c0.737-1.406,0.196-3.143-1.21-3.88l-23.753-12.462c-1.406-0.737-3.143-0.196-3.88,1.21L133.827,584.948z"/>
	<path fill="#0E7071" d="M118.34,512.833c-1.173,1.34-1.038,3.377,0.302,4.55l22.644,19.824c1.34,1.173,3.377,1.038,4.55-0.302
		l19.824-22.644c1.173-1.34,1.038-3.377-0.302-4.55l-22.644-19.824c-1.34-1.173-3.377-1.038-4.55,0.302L118.34,512.833z"/>
	<path fill="#0E7071" d="M120.561,438.624c-1.571,1.114-1.941,3.291-0.826,4.861l18.829,26.543c1.114,1.571,3.291,1.941,4.861,0.826
		l26.543-18.829c1.571-1.114,1.941-3.291,0.826-4.861l-18.829-26.543c-1.114-1.571-3.291-1.941-4.861-0.826L120.561,438.624z"/>
	<path fill="#0E7071" d="M139.026,366.345c-2.013,0.824-2.976,3.124-2.152,5.136l13.925,34.012c0.824,2.013,3.124,2.976,5.136,2.152
		l34.012-13.925c2.013-0.824,2.976-3.124,2.152-5.136l-13.925-34.012c-0.824-2.013-3.124-2.976-5.136-2.152L139.026,366.345z"/>
	<path fill="#0E7071" d="M182.885,295.056c-2.191,0-3.967,1.777-3.966,3.968l0.008,37.027c0,2.191,1.777,3.967,3.968,3.966
		l37.027-0.008c2.191,0,3.967-1.777,3.966-3.968l-0.008-37.027c0-2.191-1.777-3.967-3.968-3.966L182.885,295.056z"/>
	<path fill="#0E7071" d="M291.565,206.805c-1.953-0.763-4.154,0.201-4.918,2.153l-12.901,32.998
		c-0.763,1.953,0.201,4.154,2.153,4.918l32.998,12.901c1.953,0.763,4.154-0.201,4.918-2.153l12.901-32.998
		c0.763-1.953-0.201-4.154-2.153-4.918L291.565,206.805z"/>
	<path fill="#0E7071" d="M361.924,182.601c-1.772-1.089-4.091-0.536-5.18,1.236l-18.409,29.941c-1.089,1.772-0.536,4.091,1.236,5.18
		l29.941,18.409c1.772,1.089,4.091,0.536,5.18-1.236l18.409-29.941c1.089-1.772,0.536-4.091-1.236-5.18L361.924,182.601z"/>
</g>
<g id="Layer_4">
	<g>
		<path fill="#0E7071" d="M163.197,1036.891h-22.444v-11.173h11.265v-33.605H107.13l0.12,11.138l33.503,0.036v11.259H95.95v-11.259
			H84.771v33.605H73.506v-33.605l-33.623,0.086v33.519l22.555,0.047l-0.11,11.212H95.95v-22.432l33.55-0.093l0.074,22.525h44.802
			v-67.21h-11.179V1036.891z M62.327,1025.75H51.122v-11.205h11.205C62.327,1014.545,62.327,1025.75,62.327,1025.75z"/>
		<rect x="107.136" y="1036.891" fill="#0E7071" width="11.259" height="11.259"/>
		<rect x="84.771" y="980.939" fill="#0E7071" width="11.179" height="11.179"/>
		<rect x="62.327" y="980.939" fill="#0E7071" width="11.179" height="11.179"/>
		<rect x="39.883" y="980.939" fill="#0E7071" width="11.179" height="11.179"/>
		<rect x="185.641" y="980.939" fill="#0E7071" width="11.179" height="67.21"/>
		<rect x="208" y="992.112" fill="#0E7071" width="11.265" height="11.173"/>
		<path fill="#0E7071" d="M230.444,1014.545h-22.358v33.605h55.982v-11.275H219.25v-11.157h44.817v-33.605h-33.623L230.444,1014.545
			L230.444,1014.545z M241.5,1003.125h11.25v11.25H241.5V1003.125z"/>
		<polygon fill="#0E7071" points="622.788,1014.545 600.344,1014.545 600.344,1025.718 589.164,1025.718 589.164,1036.897 
			600.344,1036.897 600.344,1048.15 633.967,1048.15 633.967,1036.875 611.543,1036.875 611.543,1025.718 633.967,1025.718 
			633.967,980.939 622.788,980.939 		"/>
		<rect x="745.414" y="980.939" fill="#0E7071" width="11.179" height="11.179"/>
		<rect x="767.772" y="980.939" fill="#0E7071" width="11.179" height="11.179"/>
		<rect x="790.216" y="980.939" fill="#0E7071" width="11.179" height="11.179"/>
		<rect x="812.661" y="980.939" fill="#0E7071" width="11.179" height="44.778"/>
		<path fill="#0E7071" d="M655.79,1025.736h33.556v-0.018h11.179v0.018h33.623v-0.018h67.247v-6.14v-5.032v-0.086v-9.215v-1.964
			h-11.179v1.964v9.215v0.086h-11.265v-0.086v-4.381v-6.798h-11.179v6.798v4.381v0.086h-11.179v-0.086v-4.381v-6.798h-11.179v6.798
			v4.381v0.086h-11.265v-22.432h-11.222v-11.173h-11.179v11.173h-11.222v22.432h-11.179l0,0h-11.179v-11.259h11.179v-11.173h-33.623
			v11.173h11.179v11.259h-11.179l0,0h-11.179v7.116v4.057v0.018v11.155v0.024v1.329v9.906H823.84v-11.259H655.79V1025.736z
			 M711.707,1003.375h11.25v11.17h-11.25V1003.375z"/>
	</g>
</g>
</svg>
